<?xml version="1.0" encoding="UTF-8" standalone="no"?>
<svg
   width="16"
   height="16"
   fill="currentColor"
   class="bi bi-music-note-beamed"
   viewBox="0 0 16 16"
   version="1.1"
   id="svg421"
   sodipodi:docname="music-note-beamed.svg"
   inkscape:version="1.2.1 (9c6d41e, 2022-07-14)"
   xmlns:inkscape="http://www.inkscape.org/namespaces/inkscape"
   xmlns:sodipodi="http://sodipodi.sourceforge.net/DTD/sodipodi-0.dtd"
   xmlns="http://www.w3.org/2000/svg"
   xmlns:svg="http://www.w3.org/2000/svg">
  <defs
     id="defs425">
    <filter
       style="color-interpolation-filters:sRGB;"
       inkscape:label="Feather"
       id="filter2987"
       x="-0.048827583"
       y="-0.33714286"
       width="1.0976552"
       height="1.6742857">
      <feGaussianBlur
         stdDeviation="0.2"
         result="blur"
         id="feGaussianBlur2979" />
      <feComposite
         in="SourceGraphic"
         in2="blur"
         operator="atop"
         result="composite1"
         id="feComposite2981" />
      <feComposite
         in2="composite1"
         operator="in"
         result="composite2"
         id="feComposite2983" />
      <feComposite
         in2="composite2"
         operator="in"
         result="composite3"
         id="feComposite2985" />
    </filter>
  </defs>
  <sodipodi:namedview
     id="namedview423"
     pagecolor="#ffffff"
     bordercolor="#000000"
     borderopacity="0.25"
     inkscape:showpageshadow="2"
     inkscape:pageopacity="0.0"
     inkscape:pagecheckerboard="0"
     inkscape:deskcolor="#d1d1d1"
     showgrid="false"
     inkscape:zoom="14.75"
     inkscape:cx="0.44067797"
     inkscape:cy="8.3728814"
     inkscape:window-width="1655"
     inkscape:window-height="879"
     inkscape:window-x="0"
     inkscape:window-y="25"
     inkscape:window-maximized="0"
     inkscape:current-layer="svg421" />
  <path
     d="m 5.6428569,12.15036 c 0,1.02607 -1.04,1.85714 -2.3214276,1.85714 C 2.04,14.0075 1,13.17643 1,12.15036 c 0,-1.02515 1.04,-1.85715 2.3214293,-1.85715 1.2814276,0 2.3214276,0.832 2.3214276,1.85715 z M 14,10.29321 c 0,1.026072 -1.04,1.85715 -2.321431,1.85715 -1.281431,0 -2.321426,-0.831078 -2.321426,-1.85715 0,-1.026068 1.039995,-1.8571393 2.321426,-1.8571393 C 12.96,8.4360707 14,9.267142 14,10.29321 Z"
     id="path415"
     style="stroke-width:0.928569;fill:#0096ff;fill-opacity:1" />
  <path
     fill-rule="evenodd"
     d="M 13.071431,10.29321 V 1.9360707 H 14 V 10.29321 Z M 5.6428569,2.864642 V 12.15036 H 4.7142862 V 2.864642 Z"
     id="path417"
     style="stroke-width:0.928569;fill:#0096ff;fill-opacity:1" />
  <path
     d="M 4.7142862,2.776428 A 0.92857138,0.9285714 0 0 1 5.55,1.852499 L 12.978569,1.109642 A 0.92857138,0.9285714 0 0 1 14,2.0335707 V 2.864642 L 4.7142862,3.793213 Z"
     id="path419"
     style="stroke-width:0.928569;fill:#0096ff;fill-opacity:1" />
  <ellipse
     style="opacity:0.75;fill:#000000;fill-opacity:1;stroke-width:0.123267;stroke-linecap:round;stroke-linejoin:round;stop-color:#000000;filter:url(#filter2987)"
     id="path1150"
     cx="8.3728819"
     cy="14.745762"
     rx="4.9152546"
     ry="0.71186441" />
</svg>
