<?xml version="1.0" encoding="UTF-8" standalone="no"?>
<svg
   width="16"
   height="16"
   fill="currentColor"
   class="bi bi-youtube"
   viewBox="0 0 16 16"
   version="1.1"
   id="svg184"
   sodipodi:docname="youtube.svg"
   inkscape:version="1.2.1 (9c6d41e, 2022-07-14)"
   xmlns:inkscape="http://www.inkscape.org/namespaces/inkscape"
   xmlns:sodipodi="http://sodipodi.sourceforge.net/DTD/sodipodi-0.dtd"
   xmlns="http://www.w3.org/2000/svg"
   xmlns:svg="http://www.w3.org/2000/svg">
  <defs
     id="defs188">
    <filter
       style="color-interpolation-filters:sRGB;"
       inkscape:label="Feather"
       id="filter7923"
       x="-0.060000002"
       y="-0.36000001"
       width="1.12"
       height="1.72">
      <feGaussianBlur
         stdDeviation="0.3"
         result="blur"
         id="feGaussianBlur7915" />
      <feComposite
         in="SourceGraphic"
         in2="blur"
         operator="atop"
         result="composite1"
         id="feComposite7917" />
      <feComposite
         in2="composite1"
         operator="in"
         result="composite2"
         id="feComposite7919" />
      <feComposite
         in2="composite2"
         operator="in"
         result="composite3"
         id="feComposite7921" />
    </filter>
  </defs>
  <sodipodi:namedview
     id="namedview186"
     pagecolor="#ffffff"
     bordercolor="#000000"
     borderopacity="0.25"
     inkscape:showpageshadow="2"
     inkscape:pageopacity="0.0"
     inkscape:pagecheckerboard="0"
     inkscape:deskcolor="#d1d1d1"
     showgrid="false"
     inkscape:zoom="14.75"
     inkscape:cx="0.20338983"
     inkscape:cy="8.3050847"
     inkscape:window-width="1884"
     inkscape:window-height="853"
     inkscape:window-x="0"
     inkscape:window-y="25"
     inkscape:window-maximized="0"
     inkscape:current-layer="svg184" />
  <rect
     style="opacity:0.75;fill:#ffffff;fill-opacity:1;stroke-width:0.133581;stroke-linecap:round;stroke-linejoin:round;stop-color:#000000"
     id="rect3156"
     width="8"
     height="8"
     x="4"
     y="2.5"
     inkscape:label="rect3156" />
  <path
     d="M 8.051,0.5 H 8.14 c 0.822,0.003 4.987,0.033 6.11,0.33499997 A 2.01,2.01 0 0 1 15.665,2.255 c 0.101,0.38 0.172,0.883 0.22,1.402 l 0.01,0.104 0.022,0.26 0.008,0.104 c 0.065,0.914 0.073,1.77 0.074,1.957 v 0.075 c -0.001,0.194 -0.01,1.108 -0.082,2.06 L 15.909,8.322 15.9,8.426 c -0.05,0.572 -0.124,1.14 -0.235,1.5580004 A 2.007,2.007 0 0 1 14.25,11.404 c -1.16,0.312 -5.569,0.334 -6.18,0.335 H 7.928 c -0.309,0 -1.587,-0.006 -2.927,-0.052 L 4.831,11.681 4.744,11.677 4.573,11.67 4.402,11.663 C 3.292,11.614 2.235,11.535 1.748,11.403 A 2.007,2.007 0 0 1 0.333,9.9840004 C 0.222,9.567 0.148,8.998 0.098,8.426 L 0.09,8.321 0.082,8.217 A 31.4,31.4 0 0 1 0,6.181 V 6.058 C 0.002,5.843 0.01,5.1 0.064,4.28 L 0.071,4.177 0.074,4.125 0.082,4.021 0.104,3.761 0.114,3.657 C 0.162,3.138 0.233,2.634 0.334,2.255 A 2.007,2.007 0 0 1 1.749,0.83499997 C 2.236,0.70499997 3.293,0.625 4.403,0.575 L 4.573,0.568 4.745,0.562 4.831,0.559 5.002,0.552 A 99.788,99.788 0 0 1 7.858,0.501 H 8.051 Z M 6.4,3.71 V 8.528 L 10.557,6.12 Z"
     id="path182"
     style="fill:#d20000;fill-opacity:1" />
  <ellipse
     style="opacity:0.75;fill:#000000;fill-opacity:1;stroke-width:0.117165;stroke-linecap:round;stroke-linejoin:round;stop-color:#000000;filter:url(#filter7923)"
     id="path6489"
     cx="8"
     cy="14"
     rx="6"
     ry="1" />
</svg>
